<svg xmlns="http://www.w3.org/2000/svg" viewBox="0 0 640 480">
  <g fill-rule="evenodd">
    <path fill="#039" d="M0 0h640v480H0z"/>
    <path fill="#fc0" d="M320 90.5l-9.5 29.4h-30.9L300.7 135 291 164.3l28.9-21 28.8 21-9.7-29.3 26.2-15.2h-32.5zM240.2 124.7l7.2 7.2-22.8 22.8-7.2-7.2zm-23.8 35.4l12.1 4-4 12.1zm-30.4 28.3l8.3 6.3-17.5 22.7-8.3-6.3zm-29.3 34.2h10.2v30.2h-10.2zm-12.1 47.5l12.1-4-4-12.1zm4.9 36.5l17.5 22.7-8.3 6.3-17.5-22.7zm24.6 39.9l22.8 22.8-7.2 7.2-22.8-22.8zm36.5 26.1l4 12.1-12.1 4-4-12.1zm47.5 13.1v10.2H272v-10.2zm47.5-13.1l-4 12.1-12.1-4 4-12.1zm36.5-26.1l7.2 7.2-22.8 22.8-7.2-7.2zm24.6-39.9l17.5 22.7-8.3 6.3-17.5-22.7zm21.2-42.5l12.1 4-4 12.1zm10.2-47.5v30.2h-10.2V233zm-12.1-35.4l12.1 4-4 12.1zm-23.8-35.4l8.3 6.3-17.5 22.7-8.3-6.3zm-30.4-28.3l12.1 4-4 12.1z"/>
  </g>
</svg>
