<svg xmlns="http://www.w3.org/2000/svg" viewBox="0 0 640 480">
  <g fill-rule="evenodd">
    <path fill="#bd3d44" d="M0 0h888.7v37.5H0zm0 75h888.7v37.5H0zm0 75h888.7v37.5H0zm0 75h888.7v37.5H0zm0 75h888.7v37.5H0zm0 75h888.7v37.5H0zm0 75h888.7v37.5H0zm0 75h888.7v37.5H0zm0 75h888.7v37.5H0zm0 75h888.7v37.5H0zm0 75h888.7v37.5H0zm0 75h888.7v37.5H0z"/>
    <path fill="#00005d" d="M0 0h355.5v262.5H0z"/>
    <path fill="#fff" d="M56.2 19.2l11.5 35.5 11.6-35.5zm0 56l11.5 35.5 11.6-35.5zm0 56l11.5 35.5 11.6-35.5zm0 56l11.5 35.5 11.6-35.5zm0 56l11.5 35.5 11.6-35.5zm56-224.8l11.5 35.5 11.6-35.5zm0 56l11.5 35.5 11.6-35.5zm0 56l11.5 35.5 11.6-35.5zm0 56l11.5 35.5 11.6-35.5zm0 56l11.5 35.5 11.6-35.5zm56-224.8l11.5 35.5 11.6-35.5zm0 56l11.5 35.5 11.6-35.5zm0 56l11.5 35.5 11.6-35.5zm0 56l11.5 35.5 11.6-35.5zm0 56l11.5 35.5 11.6-35.5zm56-224.8l11.5 35.5 11.6-35.5zm0 56l11.5 35.5 11.6-35.5zm0 56l11.5 35.5 11.6-35.5zm0 56l11.5 35.5 11.6-35.5zm0 56l11.5 35.5 11.6-35.5zm56-224.8l11.5 35.5 11.6-35.5zm0 56l11.5 35.5 11.6-35.5zm0 56l11.5 35.5 11.6-35.5zm0 56l11.5 35.5 11.6-35.5zm0 56l11.5 35.5 11.6-35.5zm56-224.8l11.5 35.5 11.6-35.5zm0 56l11.5 35.5 11.6-35.5zm0 56l11.5 35.5 11.6-35.5zm0 56l11.5 35.5 11.6-35.5zm0 56l11.5 35.5 11.6-35.5zm56-224.8l11.5 35.5 11.6-35.5zm0 56l11.5 35.5 11.6-35.5zm0 56l11.5 35.5 11.6-35.5zm0 56l11.5 35.5 11.6-35.5zm0 56l11.5 35.5 11.6-35.5z"/>
  </g>
</svg>
